<mxfile host="Electron" modified="2024-05-19T04:31:16.375Z" agent="Mozilla/5.0 (Macintosh; Intel Mac OS X 10_15_7) AppleWebKit/537.36 (KHTML, like Gecko) draw.io/24.4.0 Chrome/120.0.6099.109 Electron/28.1.0 Safari/537.36" etag="_I363ZsiTcHYz92Gbr_T" version="24.4.0" type="device">
  <diagram name="페이지-1" id="TuR2vpSvbNJ5JFCV0znz">
    <mxGraphModel dx="1114" dy="894" grid="1" gridSize="10" guides="1" tooltips="1" connect="1" arrows="1" fold="1" page="1" pageScale="1" pageWidth="827" pageHeight="1169" math="0" shadow="0">
      <root>
        <mxCell id="0" />
        <mxCell id="1" parent="0" />
        <mxCell id="qABJjCnI006B0bX9QnQh-1" value="&lt;font color=&quot;#3333ff&quot;&gt;&amp;nbsp;&lt;b&gt;저수준&lt;/b&gt;&lt;/font&gt;&lt;div&gt;&lt;b&gt;&lt;font color=&quot;#3333ff&quot;&gt;&amp;nbsp;(인프라스프럭처&amp;nbsp; 영역)&lt;/font&gt;&lt;/b&gt;&lt;/div&gt;" style="rounded=1;whiteSpace=wrap;html=1;align=center;verticalAlign=top;strokeWidth=2;" vertex="1" parent="1">
          <mxGeometry x="500" y="14" width="200" height="386" as="geometry" />
        </mxCell>
        <mxCell id="qABJjCnI006B0bX9QnQh-2" value="&lt;font color=&quot;#3333ff&quot;&gt;&amp;nbsp;&lt;b&gt;고수준&lt;/b&gt;&lt;/font&gt;&lt;div&gt;&lt;b&gt;&lt;font color=&quot;#3333ff&quot;&gt;&amp;nbsp;(응용 영역)&lt;/font&gt;&lt;/b&gt;&lt;/div&gt;" style="rounded=1;whiteSpace=wrap;html=1;align=center;verticalAlign=top;strokeWidth=2;" vertex="1" parent="1">
          <mxGeometry x="50" y="16" width="420" height="130" as="geometry" />
        </mxCell>
        <mxCell id="qABJjCnI006B0bX9QnQh-3" value="&lt;font color=&quot;#3333ff&quot;&gt;&amp;nbsp;&lt;b&gt;고수준&lt;/b&gt;&lt;/font&gt;&lt;div&gt;&lt;b&gt;&lt;font color=&quot;#3333ff&quot;&gt;&amp;nbsp;(도메인 영역)&lt;/font&gt;&lt;/b&gt;&lt;/div&gt;" style="rounded=1;whiteSpace=wrap;html=1;align=center;verticalAlign=top;strokeWidth=2;" vertex="1" parent="1">
          <mxGeometry x="50" y="160" width="420" height="240" as="geometry" />
        </mxCell>
        <mxCell id="qABJjCnI006B0bX9QnQh-4" style="edgeStyle=orthogonalEdgeStyle;rounded=0;orthogonalLoop=1;jettySize=auto;html=1;dashed=1;endArrow=open;endFill=0;" edge="1" parent="1" source="qABJjCnI006B0bX9QnQh-7" target="qABJjCnI006B0bX9QnQh-10">
          <mxGeometry relative="1" as="geometry" />
        </mxCell>
        <mxCell id="qABJjCnI006B0bX9QnQh-5" style="edgeStyle=orthogonalEdgeStyle;rounded=0;orthogonalLoop=1;jettySize=auto;html=1;entryX=0;entryY=0.5;entryDx=0;entryDy=0;dashed=1;endArrow=open;endFill=0;" edge="1" parent="1" source="qABJjCnI006B0bX9QnQh-7" target="qABJjCnI006B0bX9QnQh-8">
          <mxGeometry relative="1" as="geometry" />
        </mxCell>
        <mxCell id="qABJjCnI006B0bX9QnQh-6" style="rounded=0;orthogonalLoop=1;jettySize=auto;html=1;exitX=0.75;exitY=1;exitDx=0;exitDy=0;entryX=0;entryY=0;entryDx=0;entryDy=0;dashed=1;endArrow=open;endFill=0;" edge="1" parent="1" source="qABJjCnI006B0bX9QnQh-7" target="qABJjCnI006B0bX9QnQh-11">
          <mxGeometry relative="1" as="geometry" />
        </mxCell>
        <mxCell id="qABJjCnI006B0bX9QnQh-7" value="OrderService" style="swimlane;fontStyle=0;align=center;verticalAlign=top;childLayout=stackLayout;horizontal=1;startSize=26;horizontalStack=0;resizeParent=1;resizeLast=0;collapsible=1;marginBottom=0;rounded=0;shadow=0;strokeWidth=1;" vertex="1" parent="1">
          <mxGeometry x="70" y="60" width="160" height="70" as="geometry">
            <mxRectangle x="340" y="380" width="170" height="26" as="alternateBounds" />
          </mxGeometry>
        </mxCell>
        <mxCell id="qABJjCnI006B0bX9QnQh-8" value="&lt;&lt;interface&gt;&gt;&#xa;Notifier" style="swimlane;fontStyle=0;align=center;verticalAlign=top;childLayout=stackLayout;horizontal=1;startSize=40;horizontalStack=0;resizeParent=1;resizeLast=0;collapsible=1;marginBottom=0;rounded=0;shadow=0;strokeWidth=1;" vertex="1" parent="1">
          <mxGeometry x="280" y="60" width="160" height="70" as="geometry">
            <mxRectangle x="340" y="380" width="170" height="26" as="alternateBounds" />
          </mxGeometry>
        </mxCell>
        <mxCell id="qABJjCnI006B0bX9QnQh-9" style="rounded=0;orthogonalLoop=1;jettySize=auto;html=1;exitX=1;exitY=1;exitDx=0;exitDy=0;entryX=0;entryY=0;entryDx=0;entryDy=0;dashed=1;endArrow=open;endFill=0;" edge="1" parent="1" source="qABJjCnI006B0bX9QnQh-10" target="qABJjCnI006B0bX9QnQh-12">
          <mxGeometry relative="1" as="geometry" />
        </mxCell>
        <mxCell id="qABJjCnI006B0bX9QnQh-10" value="CalculateDiscountService" style="swimlane;fontStyle=0;align=center;verticalAlign=top;childLayout=stackLayout;horizontal=1;startSize=26;horizontalStack=0;resizeParent=1;resizeLast=0;collapsible=1;marginBottom=0;rounded=0;shadow=0;strokeWidth=1;" vertex="1" parent="1">
          <mxGeometry x="70" y="200" width="160" height="70" as="geometry">
            <mxRectangle x="340" y="380" width="170" height="26" as="alternateBounds" />
          </mxGeometry>
        </mxCell>
        <mxCell id="qABJjCnI006B0bX9QnQh-11" value="&lt;&lt;interface&gt;&gt;&#xa;CustomerRepository" style="swimlane;fontStyle=0;align=center;verticalAlign=top;childLayout=stackLayout;horizontal=1;startSize=40;horizontalStack=0;resizeParent=1;resizeLast=0;collapsible=1;marginBottom=0;rounded=0;shadow=0;strokeWidth=1;" vertex="1" parent="1">
          <mxGeometry x="280" y="200" width="160" height="70" as="geometry">
            <mxRectangle x="340" y="380" width="170" height="26" as="alternateBounds" />
          </mxGeometry>
        </mxCell>
        <mxCell id="qABJjCnI006B0bX9QnQh-12" value="&lt;&lt;interface&gt;&gt;&#xa;RuleDiscounter" style="swimlane;fontStyle=0;align=center;verticalAlign=top;childLayout=stackLayout;horizontal=1;startSize=40;horizontalStack=0;resizeParent=1;resizeLast=0;collapsible=1;marginBottom=0;rounded=0;shadow=0;strokeWidth=1;" vertex="1" parent="1">
          <mxGeometry x="280" y="310" width="160" height="70" as="geometry">
            <mxRectangle x="340" y="380" width="170" height="26" as="alternateBounds" />
          </mxGeometry>
        </mxCell>
        <mxCell id="qABJjCnI006B0bX9QnQh-13" style="edgeStyle=orthogonalEdgeStyle;rounded=0;orthogonalLoop=1;jettySize=auto;html=1;entryX=1;entryY=0.5;entryDx=0;entryDy=0;dashed=1;endArrow=block;endFill=0;" edge="1" parent="1" source="qABJjCnI006B0bX9QnQh-14" target="qABJjCnI006B0bX9QnQh-8">
          <mxGeometry relative="1" as="geometry" />
        </mxCell>
        <mxCell id="qABJjCnI006B0bX9QnQh-14" value="SMSNotifier" style="swimlane;fontStyle=0;align=center;verticalAlign=top;childLayout=stackLayout;horizontal=1;startSize=26;horizontalStack=0;resizeParent=1;resizeLast=0;collapsible=1;marginBottom=0;rounded=0;shadow=0;strokeWidth=1;fillColor=#f8cecc;strokeColor=#b85450;" vertex="1" parent="1">
          <mxGeometry x="520" y="60" width="160" height="70" as="geometry">
            <mxRectangle x="340" y="380" width="170" height="26" as="alternateBounds" />
          </mxGeometry>
        </mxCell>
        <mxCell id="qABJjCnI006B0bX9QnQh-15" style="edgeStyle=orthogonalEdgeStyle;rounded=0;orthogonalLoop=1;jettySize=auto;html=1;entryX=1;entryY=0.5;entryDx=0;entryDy=0;dashed=1;endArrow=block;endFill=0;" edge="1" parent="1" source="qABJjCnI006B0bX9QnQh-16" target="qABJjCnI006B0bX9QnQh-11">
          <mxGeometry relative="1" as="geometry" />
        </mxCell>
        <mxCell id="qABJjCnI006B0bX9QnQh-16" value="JPACustomerRepository" style="swimlane;fontStyle=0;align=center;verticalAlign=top;childLayout=stackLayout;horizontal=1;startSize=26;horizontalStack=0;resizeParent=1;resizeLast=0;collapsible=1;marginBottom=0;rounded=0;shadow=0;strokeWidth=1;fillColor=#f8cecc;strokeColor=#b85450;" vertex="1" parent="1">
          <mxGeometry x="520" y="200" width="160" height="70" as="geometry">
            <mxRectangle x="340" y="380" width="170" height="26" as="alternateBounds" />
          </mxGeometry>
        </mxCell>
        <mxCell id="qABJjCnI006B0bX9QnQh-17" style="edgeStyle=orthogonalEdgeStyle;rounded=0;orthogonalLoop=1;jettySize=auto;html=1;exitX=0;exitY=0.5;exitDx=0;exitDy=0;entryX=1;entryY=0.5;entryDx=0;entryDy=0;dashed=1;endArrow=block;endFill=0;" edge="1" parent="1" source="qABJjCnI006B0bX9QnQh-18" target="qABJjCnI006B0bX9QnQh-12">
          <mxGeometry relative="1" as="geometry" />
        </mxCell>
        <mxCell id="qABJjCnI006B0bX9QnQh-18" value="OtherRuleDiscounter" style="swimlane;fontStyle=0;align=center;verticalAlign=top;childLayout=stackLayout;horizontal=1;startSize=26;horizontalStack=0;resizeParent=1;resizeLast=0;collapsible=1;marginBottom=0;rounded=0;shadow=0;strokeWidth=1;fillColor=#f8cecc;strokeColor=#b85450;" vertex="1" parent="1">
          <mxGeometry x="520" y="310" width="160" height="70" as="geometry">
            <mxRectangle x="340" y="380" width="170" height="26" as="alternateBounds" />
          </mxGeometry>
        </mxCell>
      </root>
    </mxGraphModel>
  </diagram>
</mxfile>
